<?xml version="1.0" encoding="utf-8"?>
<!DOCTYPE svg PUBLIC "-//W3C//DTD SVG 1.1//EN" "http://www.w3.org/Graphics/SVG/1.1/DTD/svg11.dtd">
<svg version="1.1"
	 xmlns="http://www.w3.org/2000/svg" xmlns:xlink="http://www.w3.org/1999/xlink"
	 x="0px" y="0px" width="600px" height="600px" viewBox="-25.005 -25.008 600 600" enable-background="new -25.005 -25.008 600 600"
	 xml:space="preserve">
<defs>
</defs>
<path display="none" fill="#1695C1" d="M470.791,81.91l-26.335,45.077c77.349,88.383,73.906,222.843-10.356,307.106
	c-87.868,87.868-230.33,87.868-318.198,0c-87.868-87.868-87.868-230.33,0-318.198c84.426-84.425,219.241-87.717,307.616-9.907
	l45.046-26.317C361.099-26.842,187.646-26.56,80.546,80.54c-107.395,107.395-107.395,281.515,0,388.909s281.514,107.395,388.909,0
	C576.396,362.506,576.832,189.41,470.791,81.91z"/>
<path display="none" fill="#51C6E5" d="M444.456,126.987l-27.041,46.283c48.956,68.366,42.74,164.057-18.671,225.468
	c-68.342,68.342-179.145,68.342-247.487,0c-68.342-68.342-68.342-179.146,0-247.487c61.583-61.583,157.64-67.663,226.043-18.26
	l46.218-27.003c-88.375-77.81-223.19-74.518-307.616,9.907c-87.868,87.868-87.868,230.33,0,318.198
	c87.869,87.868,230.33,87.868,318.198,0C518.362,349.83,521.804,215.37,444.456,126.987z"/>
<path display="none" fill="#BCE0ED" d="M417.415,173.27l-28.86,49.398c21.273,46.18,12.888,102.662-25.166,140.714
	c-48.815,48.816-127.96,48.816-176.776,0c-48.815-48.815-48.816-127.961,0-176.777c38.249-38.249,95.116-46.523,141.426-24.834
	l49.262-28.781c-68.403-49.403-164.459-43.324-226.043,18.26c-68.342,68.342-68.342,179.146,0,247.487
	c68.342,68.342,179.146,68.342,247.487,0C460.155,337.327,466.371,241.636,417.415,173.27z"/>
<path fill="#1695C1" d="M418.211,171.495l-27.817,49.993c22.238,45.723,15.039,102.368-22.207,141.211
	c-47.78,49.83-126.908,51.491-176.737,3.71c-49.83-47.78-51.491-126.908-3.71-176.738c37.438-39.042,94.119-48.509,140.874-27.796
	l48.646-29.808c-69.425-47.957-165.332-39.863-225.609,23c-66.893,69.761-64.567,180.54,5.194,247.433
	c69.762,66.893,180.541,64.567,247.433-5.194C464.385,334.618,468.591,238.818,418.211,171.495z"/>
<path fill="#51C6E5" d="M458.504,141.889l-27.482,49.392c36.274,65.338,27.687,149.257-26.745,206.024
	c-66.893,69.762-177.671,72.087-247.433,5.194c-69.761-66.893-72.087-177.671-5.194-247.433
	c54.617-56.959,138.484-68.953,205.401-35.029l48.096-29.471C315.926,29.273,192.921,39.782,115.56,120.46
	c-86.005,89.693-83.015,232.124,6.678,318.128c89.693,86.005,232.124,83.015,318.128-6.679
	C517.558,351.406,523.041,228.43,458.504,141.889z"/>
<path fill="#BCE0ED" d="M512.051,131.796l-28.913,51.961c36.554,81.205,22.645,179.93-42.771,248.153
	c-86.005,89.693-228.435,92.684-318.128,6.679c-89.693-86.005-92.683-228.436-6.678-318.128
	c65.615-68.428,164.063-86.373,246.887-52.849l50.603-31.007C306.256-23.712,168.264-6.747,79.471,85.854
	C-25.646,195.479-21.992,369.561,87.633,474.677c109.625,105.117,283.707,101.463,388.823-8.162
	C565.07,374.1,576.363,235.89,512.051,131.796z"/>
<path fill="#0071BC" d="M373.665,177.155l-58.774,34.339c-11.558-7.277-25.229-11.502-39.896-11.502c-41.421,0-75,33.579-75,75
	c0,41.422,33.579,75,75,75c41.422,0,75-33.578,75-75c0-14.207-3.952-27.49-10.813-38.814L373.665,177.155z"/>
</svg>
