<?xml version="1.0" encoding="utf-8"?>
<!DOCTYPE svg PUBLIC "-//W3C//DTD SVG 1.1//EN" "http://www.w3.org/Graphics/SVG/1.1/DTD/svg11.dtd">
<svg version="1.1"
	 xmlns="http://www.w3.org/2000/svg" xmlns:xlink="http://www.w3.org/1999/xlink"
	 x="0px" y="0px" width="600px" height="600px" viewBox="-25 -25 600 600" enable-background="new -25 -25 600 600"
	 xml:space="preserve">
<defs>
</defs>
<circle fill="#FFFFFF" cx="275" cy="275" r="275"/>
<path fill="#ED611B" d="M191.666,181.865c32.562-29.186,76.735-38.302,116.562-27.364l0.012-0.015l111.288-51.925
	c-83.553-70.185-206.1-70.055-289.508,0.388l30.805,39.435L191.666,181.865z"/>
<path fill="#ED611B" d="M446.876,129.823l-53.06,106.266l-0.001,0.001c14.153,43.33,4.018,92.862-30.422,127.301
	c-44.333,44.334-113.679,48.401-162.607,12.209l-83.205,60.136c87.994,86.216,229.207,85.681,316.522-1.634
	C517.476,350.729,521.715,218.225,446.876,129.823z"/>
<path fill="#ED611B" d="M169.03,341.297c-24.619-39.281-25.332-89.26-2.101-129.146l-49.618-13.105L68.263,186.09
	c-33.655,78.323-20.765,171.863,38.682,238.521L169.03,341.297z"/>
<path fill="#FCA027" d="M470.796,81.918l-23.92,47.905c74.839,88.402,70.6,220.906-12.771,304.278
	c-87.315,87.314-228.528,87.85-316.522,1.634l-41.019,29.646l30.381-40.77C47.498,357.953,34.607,264.414,68.263,186.09
	l-48.781-12.884c-39.369,98.961-19.022,216.159,61.069,296.251c107.395,107.395,281.514,107.395,388.909,0
	C576.401,362.515,576.837,189.418,470.796,81.918z"/>
<path fill="#FCA027" d="M419.527,102.561l49.041-22.882C367.144-20.849,206.947-26.228,99.222,63.523l30.797,39.425
	C213.428,32.505,335.975,32.376,419.527,102.561z"/>
<polygon points="468.568,79.679 470.796,81.918 393.816,236.089 76.563,465.381 308.239,154.486 "/>
</svg>
